<svg width="285" height="269" viewBox="0 0 285 269" fill="none" xmlns="http://www.w3.org/2000/svg">
<g filter="url(#filter0_g_13_185)">
<path d="M117.483 123.457L98.6761 126.418L92.7758 134.931L98.6761 139.372L121.908 131.97L117.483 123.457Z" fill="#EAEA00"/>
<path d="M168.004 123.457L164.317 129.749L176.486 139.372L193.818 137.151L188.655 129.749L168.004 123.457Z" fill="#EAEA00"/>
<path d="M132.971 198.59L129.91 224.128L127.071 247.815H161.735L158.232 223.202L154.729 198.59C146.67 196.259 142.084 195.313 132.971 198.59Z" fill="url(#paint0_linear_13_185)"/>
<path d="M99.7824 154.917L102.364 153.645L140.347 134.931L184.967 150.656L188.655 151.956L200.959 147.885L140.347 131.97L87.9819 153.436L99.7824 154.917Z" fill="#800022"/>
<path d="M176.486 92.738L168.004 52.0257L162.841 57.5774H121.171L113.427 52.0257L105.683 86.076L130.39 103.751L140.347 110.874L158.416 101.806L176.486 92.738Z" fill="url(#paint1_linear_13_185)"/>
<path d="M168.004 52.0257L176.486 92.738L213.262 66.3367L282.691 16.495L188.655 42.2898L168.004 52.0257Z" fill="#D9D9D9"/>
<path d="M105.683 86.076L113.427 52.0257L95.3572 46.2799L1.69055 16.495L76.1814 66.3367L105.683 86.076Z" fill="#D9D9D9"/>
<path d="M121.171 57.5774H162.841C162.841 57.5774 159.891 37.5914 155.447 33.5202C151.002 29.4489 130.39 29.819 125.208 33.5202C120.026 37.2213 121.171 57.5774 121.171 57.5774Z" fill="#3E00CF"/>
<path d="M113.427 52.0257L121.171 57.5774C121.171 57.5774 120.026 37.2213 125.208 33.5202C130.39 29.819 151.002 29.4489 155.447 33.5202C159.891 37.5914 162.841 57.5774 162.841 57.5774L168.004 52.0257L188.655 42.2898L173.904 37.5914L164.317 1.69055H116.008L105.683 41.2925L95.3572 46.2799L113.427 52.0257Z" fill="url(#paint2_linear_13_185)"/>
<path fill-rule="evenodd" clip-rule="evenodd" d="M140.347 110.874L130.39 103.751L115.086 107.312L99.7824 110.874L76.1814 129.749V151.956L87.9819 153.436L140.347 131.97L200.959 147.885L213.262 143.813L203.079 123.457L193.818 110.874L176.117 106.34L158.416 101.806L140.347 110.874ZM98.6761 126.418L117.483 123.457L121.908 131.97L98.6761 139.372L92.7758 134.931L98.6761 126.418ZM164.317 129.749L168.004 123.457L188.655 129.749L193.818 137.151L176.486 139.372L164.317 129.749Z" fill="black"/>
<path d="M44.8362 157.508L46.5162 127.158C46.5162 127.158 21.6039 146.404 19.7601 157.508C17.9163 168.611 15.3349 217.466 19.7601 232.64L44.8362 264.84L65.1184 266.691L88.7194 247.815L123.383 262.249H168.004L197.137 247.815L221.107 266.691H237.701C237.701 266.691 261.302 236.341 261.302 224.128C261.302 211.914 266.834 176.383 261.302 157.508C255.771 138.632 234.35 122.347 234.35 122.347L237.701 157.508V176.383L234.35 228.939C225.949 236.577 219.165 237.825 204.512 236.341L197.137 217.096H184.967L169.11 220.612L158.232 223.202L161.735 247.815H127.071L129.91 224.128L121.908 223.3L99.7824 217.096H88.7194L84.2942 236.341C67.5763 239.443 58.0397 239.413 40.411 232.64L38.1984 176.383L44.8362 157.508Z" fill="url(#paint3_linear_13_185)"/>
<path d="M129.91 224.128L132.971 198.59C142.084 195.313 146.67 196.259 154.729 198.59L158.232 223.202L169.11 220.612L184.967 150.656L140.347 134.931L102.364 153.645L121.908 223.3L129.91 224.128Z" fill="#D9D9D9"/>
<path d="M105.683 86.076L76.1814 66.3367C76.1814 66.3367 51.1052 106.062 47.4176 110.874L46.5162 127.158L44.8362 157.508L38.1984 176.383L40.411 232.64C58.0397 239.413 67.5763 239.443 84.2942 236.341L88.7194 217.096H99.7824L84.2942 157.508H68.0685V143.443L76.1814 129.749L58.4806 137.151C58.4806 137.151 83.1879 89.7771 88.7194 88.6668C94.2509 87.5565 115.086 107.312 115.086 107.312L130.39 103.751L105.683 86.076Z" fill="url(#paint4_linear_13_185)"/>
<path d="M204.512 236.341C219.165 237.825 225.949 236.577 234.35 228.939L237.701 176.383V157.508L234.35 122.347L233.645 114.945L213.262 66.3367L176.486 92.738L158.416 101.806L176.117 106.34C176.117 106.34 186.677 89.0369 193.818 88.6668C200.959 88.2967 222.213 127.158 222.213 127.158L203.079 123.457L222.213 137.151V150.656L203.079 154.917L184.967 217.096H197.137L204.512 236.341Z" fill="url(#paint5_linear_13_185)"/>
<path d="M76.1814 151.956V129.749L68.0685 143.443V157.508H84.2942L99.7824 217.096L121.908 223.3L102.364 153.645L99.7824 154.917L87.9819 153.436L76.1814 151.956Z" fill="url(#paint6_linear_13_185)"/>
<path d="M203.079 123.457L213.262 143.813L200.959 147.885L188.655 151.956L184.967 150.656L169.11 220.612L184.967 217.096L203.079 154.917L222.213 150.656V137.151L203.079 123.457Z" fill="url(#paint7_linear_13_185)"/>
<path d="M176.117 106.34L193.818 110.874L203.079 123.457L222.213 127.158C222.213 127.158 200.959 88.2967 193.818 88.6668C186.677 89.0369 176.117 106.34 176.117 106.34Z" fill="#41F9FF"/>
<path d="M76.1814 129.749L99.7824 110.874L115.086 107.312C115.086 107.312 94.2509 87.5565 88.7194 88.6668C83.1879 89.7771 58.4806 137.151 58.4806 137.151L76.1814 129.749Z" fill="#41F9FF"/>
</g>
<defs>
<filter id="filter0_g_13_185" x="2.8491e-05" y="2.8491e-05" width="284.381" height="268.381" filterUnits="userSpaceOnUse" color-interpolation-filters="sRGB">
<feFlood flood-opacity="0" result="BackgroundImageFix"/>
<feBlend mode="normal" in="SourceGraphic" in2="BackgroundImageFix" result="shape"/>
<feTurbulence type="fractalNoise" baseFrequency="0.99900001287460327 0.99900001287460327" numOctaves="3" seed="2630" />
<feDisplacementMap in="shape" scale="3.3810465335845947" xChannelSelector="R" yChannelSelector="G" result="displacedImage" width="100%" height="100%" />
<feMerge result="effect1_texture_13_185">
<feMergeNode in="displacedImage"/>
</feMerge>
</filter>
<linearGradient id="paint0_linear_13_185" x1="142.191" y1="1.69055" x2="142.191" y2="266.691" gradientUnits="userSpaceOnUse">
<stop stop-color="#800022"/>
<stop offset="1" stop-color="#8C0025"/>
</linearGradient>
<linearGradient id="paint1_linear_13_185" x1="142.191" y1="1.69055" x2="142.191" y2="266.691" gradientUnits="userSpaceOnUse">
<stop stop-color="#2A000B"/>
<stop offset="0.625" stop-color="#F51B55"/>
<stop offset="1" stop-color="#FF1D5A"/>
</linearGradient>
<linearGradient id="paint2_linear_13_185" x1="142.191" y1="1.69055" x2="142.191" y2="266.691" gradientUnits="userSpaceOnUse">
<stop stop-color="#D9D9D9"/>
<stop offset="0.293269"/>
<stop offset="0.350962"/>
</linearGradient>
<linearGradient id="paint3_linear_13_185" x1="142.191" y1="1.69055" x2="142.191" y2="266.691" gradientUnits="userSpaceOnUse">
<stop stop-color="#737373"/>
<stop offset="1" stop-color="#282828"/>
</linearGradient>
<linearGradient id="paint4_linear_13_185" x1="142.191" y1="1.69055" x2="142.191" y2="266.691" gradientUnits="userSpaceOnUse">
<stop stop-color="#897E8E"/>
<stop offset="1" stop-color="#D9D9D9"/>
</linearGradient>
<linearGradient id="paint5_linear_13_185" x1="142.191" y1="1.69055" x2="142.191" y2="266.691" gradientUnits="userSpaceOnUse">
<stop stop-color="#897E8E"/>
<stop offset="1" stop-color="#D9D9D9"/>
</linearGradient>
<linearGradient id="paint6_linear_13_185" x1="142.191" y1="1.69055" x2="142.191" y2="266.691" gradientUnits="userSpaceOnUse">
<stop stop-color="#3E00CF"/>
<stop offset="1" stop-color="#1F0069"/>
</linearGradient>
<linearGradient id="paint7_linear_13_185" x1="142.191" y1="1.69055" x2="142.191" y2="266.691" gradientUnits="userSpaceOnUse">
<stop stop-color="#3E00CF"/>
<stop offset="1" stop-color="#1F0069"/>
</linearGradient>
</defs>
</svg>
